<?xml version="1.0" encoding="utf-8"?>
<!-- Generator: Adobe Illustrator 21.0.0, SVG Export Plug-In . SVG Version: 6.00 Build 0)  -->
<svg version="1.1" id="Layer_1" xmlns="http://www.w3.org/2000/svg" xmlns:xlink="http://www.w3.org/1999/xlink" x="0px" y="0px"
	 viewBox="0 0 512 512" style="enable-background:new 0 0 512 512;" xml:space="preserve">
<path d="M422.9,303.9l-1.1-1.9h-2.2c-32.2-0.4-62.4,16.6-78.8,44.2c-10.2,17.1-14.2,36.9-12.1,56.1l-36.4-78.1l18.5-32l-36.4-6.5
	l-11.6-25c0.5-0.3,1.1-0.7,1.7-1c0.7-0.4,1.3-0.8,1.5-0.9c1.5-1,3-2,4.5-3.1c3-2.1,5.9-4.3,8.6-6.6s5.4-4.7,8-7.2s5-5.1,7.4-7.8
	c2.3-2.7,4.6-5.5,6.8-8.4c2.1-2.9,4.2-5.9,6.1-8.9c1.9-3.1,3.7-6.3,5.4-9.5c2-3.8,3.7-7.6,5.3-11.3c1.4-3.5,2.7-6.9,3.8-10.4
	c0.5-1.5,0.9-3.1,1.4-4.7c1.5-5.2,2.6-10.6,3.5-16.1c1.5-9.9,2-19.3,1.5-28.2c-0.1-2.6-0.4-5.1-0.7-7.5c-0.8-5.9-2.6-10.5-5.6-14
	c-2.4-2.8-5.3-4.9-8.2-6.9l-0.5-0.4c-2.2-1.6-4.4-3.2-6.6-4.9c-4.5-3.3-9-6.7-13.2-10l-0.7-0.6c-2-1.6-4-3.2-6-4.8l-1.9-1.5
	c-1.6-1.3-3.2-2.6-4.7-3.9l-0.8-0.7c-0.4-0.3-0.8-0.7-1.2-1c-2-1.7-3.9-3.4-5.9-5.1c-1.6-1.3-3.1-2.7-4.6-4.1l-3.4-3.1
	c-1.9-1.7-3.8-3.4-5.8-5.4l-0.2-0.2c-2-1.9-4-3.8-6-5.7l-0.7-0.7c-1.9-1.8-3.8-3.7-5.6-5.5l-0.5-0.5c-0.2-0.2-0.4-0.4-0.6-0.6
	c-1.9-1.9-3.7-3.7-5.6-5.6l-1.3-1.4c-1.6-1.7-3.2-3.3-4.8-5.1l-0.8-0.9c-1.8-1.9-3.5-3.8-5.5-5.9l-0.8-0.9c-1.8-2-3.6-3.9-5.3-5.9
	l-0.3-0.3c-1.4-1.6-2.8-3.2-4.1-4.8l-2.7-3.1c-1.2-1.4-2.4-2.9-3.6-4.3c-0.8-0.9-1.7-2-3-2.8c-1.4-0.7-2.9-0.9-4.1-1l-0.3-0.1
	c-2.2-0.2-4.3-0.2-6.4-0.3h-2.1c-0.9,0-1.8,0-2.6,0c-10.8,0-21.5,1.3-31.9,3.8c-8.7,2.1-17.3,5.1-25.6,9l-1.8,0.8
	c-0.6,0.3-1.2,0.6-1.8,0.9s-1.2,0.6-1.8,0.9s-1.2,0.6-1.7,0.9c-0.6,0.3-1.2,0.6-1.7,0.9c-0.6,0.3-1.2,0.7-1.7,1
	c-0.6,0.3-1.2,0.7-1.7,1c-0.6,0.3-1.1,0.7-1.7,1s-1.1,0.7-1.7,1s-1.1,0.7-1.7,1.1c-0.5,0.4-1.1,0.7-1.6,1.1
	c-0.5,0.3-1.1,0.7-1.6,1.1c-0.5,0.4-1.1,0.7-1.6,1.1c-0.5,0.3-1,0.7-1.4,1c-8.6,6.3-16.5,13.7-23.4,22c-0.6,0.7-1.2,1.3-1.7,2
	l-1.3,1.6c-1.3,1.6-2.7,3.3-3.9,5.1l-0.2,0.3c-0.7,1-1.5,2.3-1.8,3.8s0,2.9,0.2,4.1c0.4,1.8,0.7,3.7,1,5.5l0.7,4.1
	c0.3,2.1,0.7,4.2,1,6.2l0.1,0.5c0.4,2.6,0.8,5.2,1.2,7.9l0.2,1.4c0.4,2.6,0.7,5.2,1,7.7l0.1,1.2c0.3,2.3,0.5,4.6,0.8,7l0.2,2
	c0.2,2.6,0.5,5.3,0.7,7.9c0,0.3,0.1,0.6,0.1,0.9v0.7c0.2,2.6,0.4,5.2,0.6,7.8l0.1,1c0.2,2.8,0.4,5.5,0.5,8.2v0.6
	c0.1,2.6,0.2,5.1,0.3,7.7l0.1,4.6c0.1,2,0.1,4.1,0.2,6.1c0,2.6,0.1,5.2,0.1,7.8c0,0.5,0,1,0,1.5v1c0,2,0,4.1,0,6.1v2.4
	c0,2.6-0.1,5.2-0.2,7.6v1c-0.2,5.4-0.4,11-0.8,16.5c-0.2,2.7-0.4,5.5-0.6,8.2v0.6c-0.3,3.5-0.5,7.1,0.1,10.7
	c0.8,4.5,3.1,8.8,7.1,13.3c1.5,1.7,3.2,3.4,4.9,5c6.5,6.3,14.2,12.1,23,17.4c4.7,2.9,9.6,5.5,14.6,7.7c1.5,0.7,3,1.3,4.5,1.9
	c3.3,1.4,6.8,2.6,10.4,3.8c3.8,1.3,7.9,2.4,12,3.3c3.5,0.8,7.1,1.4,10.7,1.9c3.5,0.5,7.2,0.9,10.7,1.1c3.4,0.2,6.9,0.3,10.6,0.2h2.9
	c1,0,2-0.1,2.9-0.1c0.6-0.1,1.2-0.1,1.9-0.2l1-0.1c0.9-0.1,1.7-0.1,2.6-0.2c0.6,0,1.2-0.1,1.8-0.2l1.6-0.2c0.7-0.1,1.4-0.2,2-0.3
	c0.8-0.1,1.7-0.3,2.6-0.4l0.8-0.2c0.7-0.1,1.3-0.2,2-0.4c0.8-0.2,1.7-0.3,2.6-0.5c0.9-0.2,1.9-0.4,2.8-0.6c0.8-0.2,1.5-0.4,2.5-0.6
	s1.9-0.5,2.8-0.7c0.8-0.2,1.7-0.5,2.5-0.7l2.5-0.7l0.3-0.1c0.7-0.2,1.5-0.5,2.5-0.8l0.2-0.1l1.1,1.9l33.1,70.9
	c-13.2-13.3-30.4-22.4-49.4-25.5c-31.7-5.2-64.2,7-84.6,31.9l-1.4,1.7l0.8,2.1c11.4,30.1,38.2,52.1,70,57.3
	c18.2,3,36.6,0.2,52.9-7.3c11.1-5.2,21.2-12.6,29.6-22.1l22.7,48.7L290,466.9l37.9,6.7l7.8,16.6l3.9,8.4l9.1,1.5l18.7,3.1l9.1,1.5
	l-3.9-8.4l-27-57.8c12.8-0.2,25.3-3.2,36.6-8.5c16.2-7.6,30.2-19.9,39.6-35.8C438.2,366.6,438.7,332,422.9,303.9z M424.9,330.5
	l-18.8,5.4l13.2-22.3C421.8,319.1,423.7,324.8,424.9,330.5z M412.7,309.8l-13.1,22.1l-4.2-19C401,311.3,406.8,310.2,412.7,309.8z
	 M388.1,315.4l5.8,26.1l-9.2,15.5l-8.3-35.9C380.2,318.9,384.1,317,388.1,315.4z M369.6,325.6l9.4,40.9l-7.6,12.8L360.8,333
	C363.6,330.4,366.5,327.9,369.6,325.6z M354.5,339.9l11.3,49l-6.7,11.3l-11.6-50.3C349.6,346.3,352,343,354.5,339.9z M298.4,298
	l-10.1,17.5l-9.8-21.1L298.4,298z M159.8,28.1c0.5-0.5,1.1-1,1.7-1.6c0.6-0.5,1.2-1,1.8-1.4c0.6-0.5,1.2-0.9,1.8-1.4
	c0.6-0.4,1.3-0.9,1.9-1.3c0.6-0.4,1.3-0.8,2-1.2c0.6-0.4,1.3-0.8,2-1.1c0.6-0.3,1.2-0.6,1.7-0.9c7.1-3.3,15-4.8,22.8-4.3
	c-0.1,0.1-0.3,0.2-0.4,0.4c-7.7,7.2-14.8,14.9-21.3,23.1c0,0-0.8-0.4-0.9-0.5c-0.3-0.1-0.6-0.3-0.9-0.5c-0.6-0.3-1.2-0.6-1.8-0.8
	c-0.6-0.3-1.3-0.5-1.9-0.8c-0.6-0.2-1.3-0.4-2-0.6c-0.7-0.2-1.3-0.4-2-0.5c-0.7-0.2-1.3-0.3-2-0.4c-0.7-0.1-1.4-0.2-2.1-0.3
	c-0.7-0.1-1.4-0.1-2-0.2c-0.7,0-1.4,0-2.1,0c-0.3,0-0.7,0-1,0h-0.2c0,0,0.1-0.2,0.2-0.2c0.1-0.2,0.2-0.3,0.3-0.5
	c0.5-0.6,1-1.2,1.5-1.8c0.5-0.6,1-1.2,1.5-1.7C158.8,29.2,159.3,28.6,159.8,28.1z M169.1,44.6c-1.2,1.6-2.3,3.2-3.4,4.8l-4.4,6.5
	c-2.2,3.4-4.3,6.8-6.3,10.3c-4-0.7-8-1.3-12-1.8l-7.8-0.8c-1.9-0.2-3.8-0.3-5.8-0.5c1.6-7,5.8-13.2,11.9-17.1c2.1-1.4,4.6-2.6,7-3.3
	C155.2,40.5,162.6,41.3,169.1,44.6z M136.7,27c7.1-3.3,14.4-6,21.8-7.9c-5.7,4.6-10.5,10.2-14,16.8c-1,0.3-2,0.8-3,1.2l-0.3,0.1l0,0
	c-1,0.5-1.9,0.9-2.7,1.4c-7.3-1.5-14.7-1.5-21.9-0.1C122.9,34.2,129.6,30.3,136.7,27z M90.5,63.2c0.5-0.6,1-1.2,1.4-1.8
	c4.3-5,9.6-9,15.7-11.9c7.2-3.3,14.9-4.8,22.7-4.3c-4.5,4.9-7.5,10.9-8.7,17.5c-0.2,0-0.4,0-0.6,0c-7.3-0.1-14.6,0.1-21.9,0.7
	l-1.5,0.1c-2.2,0.1-4.5,0.4-6.6,0.7h-0.4l-0.3,0.1c-0.2,0-0.4,0-0.5,0.1C89.9,64,90.2,63.6,90.5,63.2z M189.4,273.4
	c-0.6,0-1.1,0-1.7-0.1h-1c-0.7,0-1.4-0.1-2-0.1c-29-1.9-57.2-13.3-79.2-32.1c-1-0.9-2-1.7-3-2.7c-3.5-3.3-6.8-7.1-8.4-11.7
	c-1.8-5.2-1.4-11.1-1-16.8c0.5-6.2,0.8-12.3,1-18.5s0.4-12.5,0.4-18.7s-0.1-12.5-0.2-18.7c-0.2-6.2-0.5-12.4-0.9-18.6
	c-0.4-6.2-0.9-12.4-1.5-18.6s-1.3-12.4-2.1-18.6C89,92,88,85.9,87,79.7c-0.1-0.6-1.1-6.6-1.2-6.8c21.7-3.1,43.7-2.9,65.3,0.5
	c-1.3,2.5-2.6,5-3.8,7.5c-0.8,1.7-1.6,3.3-2.3,5V86l-1.3,2.9c-0.6,1.4-1.2,2.8-1.7,4.2c-1.7,4.2-3.3,8.5-4.7,12.6
	c-0.3,1-0.7,2-1,2.9c-0.4,1.1-0.7,2.2-1,3.3c-0.3,0.9-0.6,1.9-0.8,2.7c-0.4,1.1-0.7,2.3-0.9,3.3c-0.3,1-0.5,1.9-0.7,2.8
	c-0.4,1.3-0.7,2.6-1,3.8c-0.3,1.2-0.6,2.3-0.8,3.4v0.2c-0.2,0.6-0.2,1.1-0.4,1.6l-0.3,1.4l-0.1,0.3c-0.2,0.8-0.3,1.5-0.5,2.3
	l-0.3,1.6c-0.4,2-0.7,4.1-1,6l-0.1,0.4c-0.2,1.1-0.4,2.3-0.5,3.5c-0.1,1-0.3,1.9-0.4,2.9l-0.3,2.5c0,0.2,0,0.3,0,0.5
	c-0.1,1.1-0.2,2.1-0.4,3.1l-0.1,0.7c-0.1,0.3-0.1,0.5-0.1,0.8c-0.1,1-0.2,2.1-0.3,3.1c-0.3,3.3-0.4,6.8-0.6,10.1
	c0,1.1-0.1,2.3-0.1,3.4c0,1.2,0,2.4,0,3.5c0,1.2,0,2.3,0,3.5c0,1.5,0.1,2.9,0.1,4.4c0.2,4.3,0.5,8.6,0.9,12.9c0,0.5,0.1,1,0.1,1.5
	l0.1,1.4c0.1,0.5,0.2,1.1,0.2,1.7c1.1,8.5,3.5,16.8,7,24.4c0.1,0.3,0.2,0.6,0.4,0.9c5.8,12.4,14.1,22.9,24.8,31.3l0.1,0.1
	c0.6,0.5,1.3,1,1.9,1.4l0.3,0.2c0.8,0.6,1.5,1.1,2.3,1.6c1.7,1.2,3.3,2.2,4.8,3.1l0.7,0.4c1.2,0.7,2.5,1.4,3.7,2
	c2.2,1.1,4.4,2.1,6.6,3.1c1.1,0.5,2.2,0.9,3.3,1.3c0.8,0.3,1.6,0.6,2.5,0.8c0.7,0.2,1.4,0.4,2.1,0.7c1,0.3,2,0.6,3,0.8
	C190.2,273.4,189.8,273.4,189.4,273.4z M230.6,265.7c-10.3,2.4-20.9,3-31.4,1.3c-1.9-0.3-3.8-0.7-5.7-1.2s-3.8-1-5.6-1.6
	c-1.9-0.6-3.7-1.3-5.5-2c-1.8-0.8-3.6-1.6-5.3-2.5s-3.5-1.8-5.1-2.8c-1.7-1-3.3-2.1-4.9-3.2c-1.6-1.1-3.1-2.3-4.7-3.5
	c-1.5-1.3-3-2.6-4.4-3.9c-1.4-1.4-2.8-2.8-4.1-4.2c-1.3-1.5-2.6-3-3.8-4.5c-1.2-1.6-2.3-3.1-3.4-4.8c-1.1-1.6-2.1-3.3-3-5
	c-2.4-4.8-4.5-9.9-6-15c-1.3-4.4-1.8-8.9-2.5-13.4c-0.3-2.1-0.6-4.2-0.8-6.3s-0.4-4.2-0.6-6.3c-0.2-2.1-0.3-4.2-0.4-6.3
	c-0.1-2.1-0.1-4.2-0.2-6.3c0-2.1,0-4.2,0-6.3c0.1-2.1,0.1-4.2,0.3-6.3c0.1-2.1,0.3-4.2,0.5-6.3s0.4-4.2,0.7-6.3
	c0.2-2.1,0.6-4.2,0.9-6.3c0.3-2.1,0.7-4.2,1.1-6.3c0.4-2.1,0.8-4.2,1.3-6.2c0.5-2.1,1-4.1,1.5-6.2c0.5-2,1.1-4.1,1.7-6.1
	c0.6-2,1.2-4.1,1.9-6.1c0.1-0.2,0.1-0.3,0.2-0.5c4.3-13,9.9-25.6,16.7-37.6c11.8-20.9,27-39.9,44.6-56.3
	c28.9,34.9,62.3,66.2,99,92.8c5,3.6,10.2,7.3,13.3,12.7c2.5,4.3,3.4,9.3,3.7,14.3c0.1,1.4,0.1,2.9,0.1,4.3
	c0.1,33.3-12.8,66.5-35.3,91C270.9,248.5,251.5,260.9,230.6,265.7z M217.8,328.7l31.1,41.2l-13-2.1l-30.3-40.1
	C209.7,327.7,213.7,328.1,217.8,328.7z M196.4,328.1L225,366l-14.7-2.4L185,330.1C188.7,329.2,192.5,328.5,196.4,328.1z
	 M177.2,332.4l22.2,29.4l-17.8-2.9l-16.3-21.2C169.1,335.6,173.1,333.9,177.2,332.4z M158.7,341.6l11.9,15.5l-25.4-4.2
	C149.3,348.7,153.8,344.9,158.7,341.6z M143.9,360.5l25.6,4.2l-16.3,10.9C149.6,370.9,146.5,365.9,143.9,360.5z M158.2,381.4
	l22.3-15l17.8,2.9l-30.5,20.8C164.4,387.6,161.2,384.6,158.2,381.4z M174.5,394.9l34.8-23.7l14.7,2.4l-39.3,26.8
	C181.1,398.8,177.7,397,174.5,394.9z M193.3,403.7l41.5-28.4l13,2.1l-42.7,29.1C201.1,406,197.2,405,193.3,403.7z M217.1,407.7
	l41.6-28.4l19.4,3.2C262.2,399,240,408.1,217.1,407.7z M259.8,371.7l-30.4-40.2c21.8,6.9,40,22.6,50,43.4L259.8,371.7z M302.4,461.1
	l10.9-18.9l10.6,22.7L302.4,461.1z M363.5,494.9l-18.7-3.1L241.9,271.2c1.3-0.6,2.7-1.1,3.9-1.7l3.3-1.4l1.9-0.9
	c1.7-0.8,3.4-1.7,5.1-2.6L363.5,494.9z M343.3,426.8c-9.6-21-9.9-45.1-1.2-66.2l11.3,49.1L343.3,426.8z M349.9,430.7l10-16.9
	l48.5-13.6C394.1,417.9,372.8,429,349.9,430.7z M415.3,390.3l-49.7,14l6.7-11.3l48.4-13.6C419.2,383.1,417.4,386.7,415.3,390.3z
	 M423.7,370.6l-45.8,12.8l7.6-12.8l40.5-11.4C425.5,363.1,424.8,366.8,423.7,370.6z M391.2,361.1l9.2-15.5l25.8-7.4
	c0.5,4.3,0.7,8.7,0.6,13L391.2,361.1z"/>
</svg>
