<?xml version="1.0" encoding="utf-8"?>
<!-- Generator: Adobe Illustrator 21.0.0, SVG Export Plug-In . SVG Version: 6.00 Build 0)  -->
<svg version="1.1" id="Layer_1" xmlns="http://www.w3.org/2000/svg" xmlns:xlink="http://www.w3.org/1999/xlink" x="0px" y="0px"
	 viewBox="0 0 512 512" style="enable-background:new 0 0 512 512;" xml:space="preserve">
<g>
	<path d="M452.9,376.8c-0.4-0.2-0.8-0.4-1.1-0.5l-0.2-0.1c-16-7.1-33.4-9-50.5-5.5c-26,5.3-47.3,22.2-58.5,46.2c-0.5,1-0.9,2-1.3,3
		l-0.2,0.6c-0.1,0.1-0.1,0.3-0.2,0.5l-0.3,0.8c-0.2,0.4-0.3,0.8-0.5,1.3c-0.1,0.2-0.2,0.5-0.2,0.7l-0.3,0.8
		c-0.2,0.5-0.4,1.1-0.6,1.7l-0.4,1.3c-0.2,0.6-0.4,1.2-0.6,1.8c-0.1,0.5-0.3,0.9-0.4,1.4l-0.2,0.6c-0.1,0.4-0.2,0.8-0.3,1.2
		c-0.1,0.5-0.2,0.9-0.3,1.4l-0.1,0.3c-0.1,0.5-0.2,1-0.3,1.5v0.2c-0.1,0.3-0.1,0.5-0.1,0.8l-0.1,0.4c-0.1,0.6-0.2,1.2-0.3,1.8
		c0,0.3-0.1,0.5-0.1,0.8l-0.1,0.6c-0.1,0.6-0.2,1.2-0.3,1.8l-0.1,0.6c0,0.3-0.1,0.6-0.1,0.9l-0.3,4c0,0.3,0,0.7,0,0.9
		c0,0.4,0,0.7,0,1.1v0.4c0,0.6,0,1.2,0,1.8c0,0.3,0,0.5,0,0.8c0,0.1,0,0.2,0,0.4v0.4c0,0.6,0,1.1,0.1,1.8v0.1c0,0.5,0,0.9,0.1,1.3
		c0,0.4,0,0.9,0.1,1.4l0.2,2.6c0,0.4,0.1,0.8,0.1,1.2c0.1,0.5,0.1,1,0.2,1.5c0.1,0.6,0.2,1.2,0.3,1.8v0.1c-0.4,0.1-0.9,0.3-1.3,0.4
		l-2.1,0.6c-0.7,0.2-1.4,0.4-2.2,0.6h-0.2c-0.6,0.2-1.3,0.4-1.9,0.5l-4.3,1.1c-0.7,0.2-1.5,0.4-2.2,0.6c-0.4,0.1-0.8,0.2-1.2,0.3
		l-0.8,0.2c-0.7,0.2-1.5,0.3-2.2,0.5l-2.9,0.6c-0.5,0.1-0.9,0.2-1.5,0.3c-0.5,0.1-1,0.2-1.6,0.3l-1.5,0.3c-0.4,0.1-0.8,0.2-1.2,0.2
		l-2.6,0.4c-0.6,0.1-1.2,0.2-1.8,0.3l-2.6,0.4c-0.4,0.1-0.7,0.1-1.1,0.2l-2.7,0.3c-0.3,0-0.6,0.1-0.9,0.1h-0.3
		c-0.4,0-0.7,0.1-1.1,0.1l-0.6,0.1c-0.5,0-1,0.1-1.5,0.1c-0.7,0.1-1.5,0.1-2.3,0.2c-0.4,0-0.7,0.1-1.1,0.1l-1.6,0.1
		c-0.5,0-1.1,0.1-1.6,0.1H287c-0.3,0-0.6,0-0.9,0.1l-6.2,0.3c-0.5,0-1,0-1.6,0c-0.3,0-0.7,0-1,0h-1.1c-0.6,0-1.3,0-1.9,0h-0.6
		c-0.4,0-0.7,0-1.1,0h-3h-0.2c-0.6,0-1.3,0-1.9-0.1l-2.4-0.1c-0.5,0-1,0-1.5-0.1l-4.9-0.3c-0.2,0-0.4,0-0.7-0.1l-1.6-0.1
		c-0.4,0-0.9-0.1-1.3-0.1l-3.2-0.3c-0.6-0.1-1.2-0.1-1.9-0.2l-0.6-0.1c-0.5-0.1-1.1-0.1-1.6-0.2l-4.3-0.6c-0.7-0.1-1.4-0.2-2.1-0.4
		l-2.2-0.4c-0.2,0-0.4-0.1-0.6-0.1l-0.5-0.1c-0.3-0.1-0.7-0.1-1-0.2c-0.4-0.1-0.8-0.1-1.2-0.2l-7.4-1.6l-1.1-0.3
		c-0.2,0-0.4-0.1-0.6-0.1l-0.4-0.1c-0.5-0.1-1-0.2-1.5-0.4l-1.2-0.3c-0.5-0.1-1-0.3-1.6-0.4c-0.5-0.1-1-0.3-1.4-0.4l-5.1-1.5l-1-0.3
		c-0.3-0.1-0.6-0.2-0.9-0.3l-3.1-1c-0.4-0.1-0.8-0.2-1.2-0.4c-0.6-0.2-1.3-0.4-1.9-0.7l-2.3-0.8c-0.5-0.2-1-0.4-1.5-0.5L326.3,199
		l51.2,23.9c0,0.2,0,0.5,0.1,0.7c1.2,10.8,7.9,20.1,17.8,24.7c15.5,7.3,34.1,0.5,41.3-15c7.3-15.5,0.5-34.1-15.1-41.3
		c-9.9-4.6-21.2-3.8-30.3,2.3c-0.2,0.1-0.4,0.3-0.6,0.4l-51.2-23.9l31.7-67.9c19.5,2,39.1-8.4,47.8-27.2c11.1-23.7,0.8-52-23-63.1
		c-23.7-11.1-52-0.8-63.1,23c-8.8,18.8-4.1,40.4,9.9,54.1l-31.7,67.9l-51.2-23.9c0-0.2,0-0.5-0.1-0.7c-1.2-10.8-7.9-20.1-17.8-24.7
		c-15.5-7.2-34.1-0.5-41.3,15.1c-7.2,15.5-0.5,34.1,15,41.3c9.9,4.6,21.2,3.8,30.3-2.2c0.2-0.1,0.4-0.3,0.6-0.4l51.2,23.9
		L175.5,448.7c-0.5-0.3-0.9-0.5-1.4-0.8l-2.1-1.2c-0.6-0.3-1.1-0.7-1.7-1c-0.3-0.2-0.7-0.4-1-0.6l-2.7-1.7c-0.3-0.2-0.5-0.3-0.8-0.5
		c-0.2-0.1-0.4-0.2-0.5-0.4l-4.7-3.1c-0.4-0.3-0.8-0.6-1.3-0.9s-1-0.7-1.5-1l-0.8-0.6c-0.4-0.3-0.8-0.6-1.3-0.9l-1.1-0.8
		c-0.2-0.2-0.4-0.3-0.6-0.5l-1.8-1.3L148,430l-1.1-0.9c-0.2-0.2-0.5-0.4-0.7-0.6c-0.3-0.2-0.6-0.5-0.8-0.7l-1.7-1.5
		c-0.5-0.5-1.1-0.9-1.7-1.4c-0.3-0.3-0.6-0.5-0.9-0.8l-4-3.6c-0.4-0.4-0.9-0.8-1.3-1.2l-2.7-2.6c-0.2-0.2-0.4-0.4-0.6-0.6l-0.7-0.7
		c-0.3-0.3-0.6-0.6-0.9-0.9l-1.5-1.5c-0.3-0.3-0.6-0.7-1-1l-1.3-1.4c-0.2-0.2-0.5-0.5-0.7-0.8l-1.6-1.7c-0.3-0.4-0.6-0.7-1-1.1
		l-2.4-2.8c-0.3-0.3-0.6-0.7-0.9-1l-0.3-0.3c-0.4-0.5-0.8-0.9-1.2-1.5l-0.5-0.6c-0.3-0.3-0.5-0.6-0.8-1c-0.3-0.3-0.5-0.7-0.8-1
		l-0.8-1c-0.4-0.5-0.8-1-1.1-1.5l-0.8-1c-0.2-0.3-0.4-0.6-0.6-0.8l-0.6-0.9c-0.2-0.3-0.4-0.5-0.6-0.8l-1.8-2.6
		c-0.2-0.3-0.5-0.7-0.7-1l-0.1-0.1c-0.4-0.6-0.8-1.2-1.3-1.9c-0.4-0.5-0.7-1-1-1.5l-0.1-0.2c-0.2-0.3-0.4-0.6-0.6-1l-0.2-0.3
		c-0.1-0.2-0.3-0.4-0.4-0.6c-0.4-0.6-0.8-1.2-1.1-1.7c-0.3-0.5-0.6-1-1-1.5l-1.4-2.2c-0.2-0.3-0.3-0.6-0.5-0.8l-1.7-2.9
		c-0.3-0.5-0.6-1-0.8-1.4l-0.3-0.5c-0.3-0.6-0.7-1.2-1-1.8c-0.2-0.4-0.5-0.8-0.7-1.3l-1.4-2.6c-0.4-0.7-0.7-1.3-1-2
		c-0.2-0.5-0.5-1-0.7-1.5l-3.1-6.5l-0.9-2c-0.3-0.7-0.6-1.4-0.9-2.1l-0.8-2c-0.2-0.4-0.4-0.9-0.5-1.3l0,0c0.5-0.3,1.1-0.6,1.6-1
		c0.4-0.3,0.8-0.5,1.2-0.8c0.5-0.3,1-0.7,1.5-1l0.3-0.2c0.2-0.1,0.4-0.3,0.6-0.4l0.9-0.6c0.3-0.2,0.6-0.4,0.8-0.6
		c0.4-0.3,0.8-0.6,1.2-0.9l0.2-0.2c0.4-0.3,0.8-0.6,1.2-1l1.1-0.9c0.5-0.4,0.9-0.8,1.4-1.2l0.6-0.5c0.2-0.2,0.3-0.3,0.5-0.4
		c0.3-0.3,0.6-0.5,0.8-0.8l2.8-2.8c0.3-0.3,0.6-0.7,1-1c0.4-0.4,0.8-0.9,1.2-1.3l0.2-0.2c0.3-0.3,0.6-0.6,0.9-0.9l1.4-1.7
		c0.2-0.3,0.5-0.6,0.7-0.8c0.4-0.4,0.7-0.9,1-1.3l0.3-0.3c0.3-0.3,0.5-0.7,0.7-1c0.3-0.3,0.5-0.7,0.7-1l0.3-0.5
		c0.3-0.4,0.6-0.8,0.8-1.2c0.4-0.5,0.7-1.1,1-1.6l0.5-0.7c0.1-0.1,0.2-0.3,0.3-0.4c0.3-0.5,0.6-1,0.9-1.6l0.8-1.4
		c0.2-0.4,0.4-0.7,0.6-1.1l0.4-0.8c0.1-0.1,0.1-0.2,0.2-0.4l0.1-0.2c0.1-0.1,0.1-0.3,0.2-0.4c0.5-1,1-2,1.5-3
		c11.2-24,10.4-51.2-2.2-74.5c-8.3-15.4-21-27.5-36.8-35.2c-0.4-0.2-0.8-0.4-1.2-0.6l-4.1-1.9l-1.9,4.1
		c-8.8,18.9-14.8,38.9-17.7,59.3c-1.6,11.5-2.3,23.2-2,34.8c0.5,18.1,3.3,36.1,8.5,53.6l0.5,1.7c5,16.6,12.1,32.5,20.9,47.3
		c16.3,27.1,38.8,50.5,65.2,67.7c8.4,5.1,17.2,9.9,26.2,14.1s18.3,7.9,27.6,11c30.1,9.2,62.6,11.4,93.8,6.5
		c17-2.7,33.8-7.5,49.7-14.4l1.7-0.7c16.7-7.3,32.3-16.7,46.5-28c9.1-7.3,17.7-15.3,25.4-23.9c13.8-15.4,25.3-32.7,34.1-51.7
		l1.9-4.1L452.9,376.8z M219.3,157.5c-11.6-5.4-16.7-19.3-11.2-30.9c5.4-11.6,19.3-16.7,30.9-11.3c7.4,3.5,12.4,10.4,13.3,18.5
		c0.3,2.1,0.2,4.3-0.2,6.5c-0.3,2-1,4-1.9,5.9s-2,3.7-3.4,5.3c-1.4,1.7-3,3.1-4.9,4.3C235.2,160.4,226.7,161,219.3,157.5z
		 M418.5,199.1c11.6,5.4,16.7,19.3,11.3,30.9c-5.4,11.6-19.3,16.7-30.9,11.2c-7.4-3.4-12.4-10.3-13.3-18.5c-0.2-2.2-0.2-4.3,0.2-6.5
		c0.3-2,1-4,1.8-5.9c0.9-1.9,2-3.7,3.4-5.3s3-3.1,4.8-4.3C402.6,196.3,411.1,195.6,418.5,199.1z M80.8,344.1
		c-3.1,1.7-6.4,3.1-9.9,4.4c-4.5-16.1-7.1-32.6-7.5-49.2c-0.3-11.2,0.3-22.4,1.9-33.4c2.6-18.3,7.7-36.2,15.3-53.3
		c0.1,0.1,0.3,0.1,0.4,0.2c0.4,0.2,0.8,0.5,1.3,0.7l0.5,0.3c0.2,0.1,0.5,0.3,0.7,0.4c0.3,0.2,0.6,0.4,0.9,0.5l0.4,0.3
		c0.2,0.1,0.3,0.2,0.5,0.3s0.4,0.3,0.7,0.4c0.4,0.3,0.9,0.6,1.3,0.9l0.4,0.3c0.2,0.2,0.5,0.3,0.7,0.5c0.4,0.3,0.8,0.6,1.2,0.9
		l1.1,0.8c0.4,0.3,0.8,0.7,1.3,1l0.2,0.1c0.3,0.2,0.6,0.4,0.8,0.6l0.6,0.5c0.2,0.2,0.4,0.4,0.6,0.5l0.5,0.4c0.2,0.1,0.3,0.3,0.5,0.4
		c0.4,0.4,0.8,0.7,1.2,1.1l0.4,0.3c0.2,0.2,0.4,0.3,0.6,0.5c0.4,0.4,0.8,0.8,1.1,1.1c0.2,0.2,0.3,0.3,0.5,0.5
		c0.1,0.1,0.3,0.3,0.4,0.4c0.4,0.4,0.7,0.8,1.1,1.2c0.2,0.2,0.3,0.3,0.5,0.5c0.1,0.1,0.3,0.3,0.4,0.5c0.3,0.3,0.6,0.7,0.9,1l0.2,0.2
		c0.2,0.2,0.3,0.4,0.5,0.5l0.3,0.4c0.2,0.3,0.4,0.6,0.7,0.8l0.7,0.9c0.1,0.2,0.3,0.4,0.5,0.6c0.2,0.3,0.5,0.6,0.7,0.9l0.3,0.5
		c0.2,0.3,0.4,0.6,0.7,0.9c0.2,0.3,0.4,0.6,0.6,0.8c0.1,0.2,0.3,0.4,0.4,0.6l0.2,0.3c0.1,0.2,0.3,0.4,0.5,0.7c0.3,0.5,0.7,1.1,1,1.6
		l0.5,0.8c0.5,0.8,1,1.7,1.4,2.5c11.3,21,12.1,45.4,2,67c-1.3,2.7-2.7,5.4-4.3,8C102,328.9,92.3,338,80.8,344.1z M344.9,467.2
		c-2.7-12.8-2-26,2.1-38.3c1-2.9,2.1-5.7,3.3-8.4c10.1-21.6,29.2-36.7,52.6-41.5c0.9-0.2,1.9-0.4,2.8-0.5l1.1-0.1
		c0.6-0.1,1.2-0.2,1.9-0.3c0.2,0,0.5-0.1,0.7-0.1h0.3c0.3,0,0.5-0.1,0.8-0.1s0.7-0.1,1-0.1c0.4,0,0.7-0.1,1.2-0.1h0.5
		c0.4,0,0.8-0.1,1.2-0.1c0.2,0,0.5,0,0.7,0h1.1c0.4,0,0.7,0,1,0h0.6c0.2,0,0.5,0,0.7,0h0.3c0.4,0,0.9,0,1.3,0c0.2,0,0.4,0,0.6,0
		s0.5,0,0.7,0c0.5,0,1.1,0,1.6,0.1c0.2,0,0.4,0,0.6,0.1c0.2,0,0.5,0,0.7,0.1c0.5,0,1.1,0.1,1.6,0.1c0.2,0,0.5,0,0.7,0.1l0.5,0.1
		c0.5,0.1,1.1,0.1,1.6,0.2c0.2,0,0.4,0.1,0.7,0.1l0.6,0.1c0.3,0,0.6,0.1,0.8,0.1c0.3,0,0.5,0.1,0.8,0.1c0.3,0.1,0.7,0.1,1,0.2
		l0.3,0.1c0.5,0.1,1,0.2,1.5,0.3l1.4,0.4c0.5,0.1,0.9,0.2,1.4,0.4c0.3,0.1,0.5,0.1,0.8,0.2l0.4,0.1c0.5,0.1,1,0.3,1.6,0.5
		c0.2,0.1,0.5,0.1,0.7,0.2s0.4,0.1,0.5,0.2l0.5,0.2c0.3,0.1,0.7,0.2,1,0.4c0.2,0.1,0.5,0.2,0.8,0.3l0.6,0.2c0.5,0.2,0.9,0.3,1.4,0.5
		c0.1,0.1,0.3,0.1,0.4,0.2c-8.2,16.7-18.6,32.2-31,45.9c-7.4,8.3-15.6,16-24.4,22.9c-13,10.3-27.3,19.1-42.5,25.9
		C346.6,474.2,345.6,470.7,344.9,467.2z M383.9,201.3c-1.4,1.8-2.5,3.7-3.5,5.8s-1.7,4.2-2.2,6.4L322,187.3L191.7,466.8l4.4,1.8
		c0.2,0.1,0.4,0.2,0.6,0.3l2.3,0.9c0.5,0.2,1,0.4,1.5,0.6l1.7,0.6c0.9,0.3,1.8,0.6,2.6,0.9c0.4,0.2,0.8,0.3,1.2,0.4l2.1,0.7
		c0.4,0.1,0.8,0.3,1.2,0.4c0.7,0.2,1.3,0.4,2,0.6c0.8,0.3,1.6,0.5,2.4,0.8c0.5,0.2,1,0.3,1.4,0.4l3.1,0.9c0.7,0.2,1.4,0.4,2.1,0.6
		l1.1,0.3c0.4,0.1,0.8,0.2,1.3,0.3c0.4,0.1,0.8,0.2,1.2,0.3l1.7,0.4c0.5,0.1,1.1,0.3,1.6,0.4l2.2,0.5c0.8,0.2,1.5,0.3,2.3,0.5
		l1.3,0.3c0.3,0.1,0.6,0.1,0.9,0.2c0.8,0.2,1.5,0.3,2.3,0.4c0.5,0.1,1,0.2,1.5,0.3l0.9,0.2c0.7,0.1,1.5,0.3,2.2,0.4
		c0.4,0.1,0.8,0.1,1.1,0.2l1.9,0.3c0.5,0.1,1.1,0.2,1.6,0.2l2.3,0.3c0.5,0.1,1.1,0.1,1.6,0.2l3.3,0.4c0.7,0.1,1.3,0.1,1.9,0.2
		c0.5,0.1,1,0.1,1.5,0.1l3.1,0.3c0.5,0,1.1,0.1,1.6,0.1l1.3,0.1c0.6,0,1.2,0.1,1.7,0.1c0.6,0,1.3,0.1,1.9,0.1h0.6
		c0.7,0,1.4,0.1,2.2,0.1h0.6c0.6,0,1.2,0,1.7,0c0.8,0,1.5,0,2.3,0s1.6,0,2.3,0h1.4c0.3,0,0.6,0,0.9,0c0.7,0,1.4,0,2.1-0.1h1.5
		c0.3,0,0.7,0,1,0c0.8,0,1.6-0.1,2.4-0.1l2.3-0.1c0.8,0,1.6-0.1,2.3-0.2c0.8,0,1.5-0.1,2.3-0.2c0.4,0,0.8-0.1,1.2-0.1l1.4-0.1
		c0.7-0.1,1.4-0.1,2-0.2c0.8-0.1,1.5-0.2,2.3-0.3c0.8-0.1,1.5-0.2,2.3-0.3l0.4-0.1c0.6-0.1,1.3-0.2,1.9-0.3c0.6-0.1,1.2-0.2,1.8-0.3
		l0.5-0.1c0.5-0.1,1.1-0.2,1.6-0.3l7.6-1.3c0.3-0.1,0.7-0.1,1-0.2c0.4-0.1,0.7-0.2,1.1-0.2l2.3-0.5c0.4-0.1,0.7-0.2,1.1-0.3l3.4-0.8
		c0.5-0.1,1-0.3,1.6-0.4l0.6-0.2c0.5-0.1,1-0.3,1.6-0.4l1.6-0.4c0.5-0.1,0.9-0.3,1.4-0.4c0.7-0.2,1.4-0.4,2.1-0.6l0.3-0.1
		c0.7-0.2,1.4-0.4,2.1-0.6l2.4-0.7c0.2-0.1,0.5-0.1,0.7-0.2c0.6,2.2,1.3,4.5,2.1,6.6l-1,0.4c-0.7,0.3-1.4,0.5-2.1,0.8l-0.2,0.1
		c-0.6,0.2-1.2,0.5-1.9,0.7l-4.3,1.5c-0.5,0.2-1,0.3-1.5,0.5l-1.4,0.5l-6.7,2.1c-0.4,0.1-0.8,0.2-1.2,0.4l-4.3,1.2
		c-0.5,0.1-1.1,0.3-1.6,0.4l-0.9,0.2c-0.6,0.1-1.2,0.3-1.8,0.4l-6.5,1.4l-6.6,1.2l-2.4,0.4c-0.4,0.1-0.8,0.1-1.1,0.2L293,493
		c-0.5,0.1-1,0.2-1.5,0.2l-2.8,0.3c-0.6,0.1-1.1,0.1-1.7,0.2l-4.6,0.5l-0.7,0.1c-0.5,0-0.9,0.1-1.4,0.1c-0.7,0.1-1.4,0.1-2.1,0.2
		s-1.4,0.1-2.3,0.1h-0.7c-0.5,0-1,0.1-1.5,0.1c-0.4,0-0.8,0-1.2,0.1h-1.1c-0.7,0-1.4,0-2.1,0.1c-0.5,0-1,0-1.6,0h-2.8
		c-0.7,0-1.5,0-2.3,0c-0.5,0-1.1,0-1.6,0h-0.5c-0.7,0-1.3,0-2-0.1l-2.5-0.1c-0.5,0-1,0-1.4-0.1h-0.8c-0.4,0-0.8-0.1-1.1-0.1h-0.3
		c-0.3,0-0.5,0-0.8,0h-0.3c-0.7,0-1.4-0.1-2.1-0.2l-1-0.1c-0.4,0-0.8-0.1-1.1-0.1l-2.3-0.2c-0.7-0.1-1.4-0.1-2.1-0.2
		c-0.7-0.1-1.3-0.2-2-0.2h-0.3c-0.4,0-0.9-0.1-1.3-0.2l-4-0.6c-0.4-0.1-0.8-0.1-1.2-0.2c-0.8-0.1-1.6-0.3-2.4-0.4l-2.2-0.4
		c-0.5-0.1-1-0.2-1.5-0.3l-1.4-0.3c-0.4-0.1-0.9-0.2-1.3-0.2c-0.8-0.2-1.6-0.3-2.5-0.5l-0.7-0.1c-0.4-0.1-0.8-0.2-1.2-0.3l-2.5-0.6
		c-0.2-0.1-0.4-0.1-0.6-0.2l-0.4-0.1c-0.3-0.1-0.5-0.1-0.8-0.2c-0.6-0.1-1.2-0.3-1.8-0.5l-1.9-0.5c-0.2-0.1-0.4-0.1-0.7-0.2
		c-0.6-0.2-1.3-0.4-2-0.6l-1-0.3c-0.3-0.1-0.7-0.2-1-0.3l-0.4-0.1c-1.4-0.4-2.9-0.9-4.3-1.3c-3.6-1.2-7.5-2.6-11.5-4.1l-1.8-0.7
		c-6.5-2.6-13.5-5.9-19.8-9.2c-4.1-2.2-8.2-4.6-12.2-7.1c-1.3-0.8-2.5-1.6-3.8-2.4l-4.4-3c-0.2-0.2-0.5-0.3-0.7-0.5l-0.8-0.5
		c-0.5-0.4-1-0.7-1.5-1.1c-0.2-0.2-0.4-0.3-0.7-0.5l-0.4-0.3c-0.1-0.1-0.3-0.2-0.4-0.3l-1.3-1c-0.3-0.2-0.5-0.4-0.8-0.6
		s-0.6-0.5-1-0.7l-0.9-0.7c-0.6-0.4-1.1-0.9-1.7-1.3c-0.3-0.3-0.6-0.5-1-0.8l-1.1-0.9c-0.4-0.3-0.9-0.7-1.3-1l-1.9-1.6
		c-0.5-0.4-1-0.8-1.5-1.3c-0.3-0.2-0.6-0.5-0.9-0.8l-1-0.9c-0.5-0.4-1-0.9-1.4-1.3l-0.3-0.3c-0.4-0.4-0.8-0.8-1.3-1.2l-0.2-0.2
		c-0.5-0.5-1-0.9-1.5-1.4s-1-1-1.5-1.5l-1.7-1.6l-1.5-1.6c-0.5-0.5-0.9-0.9-1.4-1.4l-1.2-1.3c-0.2-0.2-0.4-0.4-0.5-0.6l-0.7-0.7
		c-0.3-0.3-0.6-0.6-0.8-0.9l-1.5-1.7c-0.5-0.6-1-1.1-1.5-1.7l-0.6-0.7c-0.3-0.3-0.5-0.6-0.8-1c-0.5-0.6-1-1.1-1.4-1.7l-0.4-0.4
		c-0.3-0.3-0.5-0.6-0.8-0.9l-1.1-1.3c-0.2-0.2-0.4-0.5-0.6-0.8c-0.3-0.4-0.7-0.8-1-1.2l-0.7-1c-0.3-0.4-0.7-0.8-1-1.3
		c-0.2-0.3-0.5-0.6-0.7-0.9l-0.9-1.2c-0.3-0.5-0.7-0.9-1-1.4c-0.4-0.6-0.8-1.2-1.3-1.8c-0.4-0.5-0.7-1-1.1-1.5l-2.7-4
		c-0.4-0.6-0.8-1.2-1.2-1.8l-1.2-1.9c-0.2-0.3-0.4-0.6-0.6-0.9L93,398c-0.4-0.6-0.7-1.2-1.1-1.8l-2.3-4l-2.1-3.9l-2-4
		c-0.3-0.7-0.7-1.4-1-2.1c-0.3-0.6-0.6-1.3-0.9-1.9l-1.9-4.1c-0.3-0.6-0.5-1.2-0.8-1.8l-1.5-3.5c-0.1-0.3-0.3-0.6-0.4-1
		c-0.1-0.2-0.2-0.4-0.3-0.7c-0.1-0.2-0.2-0.5-0.3-0.7l-0.5-1.3c-0.2-0.5-0.4-0.9-0.6-1.5c-0.2-0.4-0.3-0.9-0.5-1.3l-1.1-2.9
		c-0.2-0.5-0.3-1-0.5-1.5l-0.2-0.5v-0.1c-0.3-0.7-0.5-1.4-0.7-2.2l-0.3-1c2.2-0.8,4.3-1.7,6.4-2.6c0.1,0.2,0.1,0.3,0.2,0.5l1,2.4
		c0.3,0.7,0.6,1.4,0.9,2.1s0.7,1.5,1,2.2c0.2,0.4,0.3,0.8,0.5,1.2l0.7,1.6c0.2,0.5,0.5,1,0.7,1.5l0.3,0.6c0.2,0.5,0.5,1,0.7,1.5
		l1.1,2.1c0.2,0.3,0.3,0.6,0.5,1c0.2,0.3,0.4,0.7,0.5,1c0.1,0.2,0.3,0.5,0.4,0.7s0.3,0.5,0.4,0.7l0.9,1.7c0.2,0.3,0.4,0.6,0.5,1
		l1.4,2.5c0.3,0.5,0.6,1,0.9,1.5c0.2,0.4,0.5,0.8,0.7,1.2l0.8,1.3c0.3,0.4,0.5,0.9,0.8,1.3l0.1,0.2c0.4,0.7,0.8,1.3,1.2,1.9
		c0.4,0.7,0.8,1.3,1.2,2c0.3,0.5,0.7,1,1,1.6l0.2,0.4c0.4,0.7,0.9,1.3,1.3,1.9s0.8,1.2,1.3,1.9l0.4,0.6c0.3,0.4,0.6,0.9,0.9,1.3
		c0.3,0.5,0.7,1,1.1,1.5l0.3,0.4c0.5,0.6,0.9,1.3,1.4,1.9l1.4,1.8c0.5,0.6,0.9,1.2,1.4,1.8c0.3,0.4,0.7,0.9,1,1.3l0.5,0.6
		c0.4,0.6,0.9,1.1,1.3,1.6c0.3,0.4,0.6,0.8,1,1.2l0.5,0.7c0.5,0.6,1,1.2,1.4,1.7c0.5,0.6,1,1.2,1.5,1.7c0.3,0.4,0.6,0.7,0.9,1.1
		l0.6,0.7c0.4,0.4,0.7,0.8,1.1,1.2l0.8,0.8c0.4,0.5,0.8,0.9,1.2,1.4c0.4,0.4,0.8,0.9,1.2,1.3l0.4,0.4c0.5,0.5,1,1.1,1.6,1.6l3.2,3.2
		c0.5,0.5,1.1,1,1.6,1.6l2.3,2.2c0.4,0.4,0.8,0.7,1.2,1.1l1.7,1.5c0.4,0.4,0.8,0.7,1.2,1.1l1.1,1c0.4,0.3,0.8,0.7,1.1,1
		c0.6,0.5,1.1,1,1.8,1.5l0.6,0.5c0.4,0.3,0.8,0.7,1.2,1c0.6,0.5,1.2,1,1.8,1.5l1.8,1.4c0.6,0.5,1.2,1,1.9,1.4
		c0.6,0.5,1.2,0.9,1.8,1.4c0.4,0.3,0.9,0.7,1.3,1l1.4,1c0.3,0.2,0.7,0.5,1,0.8l0.1,0.1c0.3,0.2,0.6,0.4,0.9,0.6l1,0.7
		c0.6,0.4,1.2,0.9,1.8,1.3l2.6,1.8c0.4,0.3,0.8,0.6,1.2,0.8c0.6,0.4,1.2,0.7,1.7,1.1l0.7,0.4c0.5,0.3,1,0.7,1.5,1
		c0.3,0.2,0.7,0.4,1,0.6l1.9,1.2c0.4,0.2,0.7,0.5,1.1,0.7c0.9,0.5,1.7,1,2.6,1.5l1.4,0.8c1.4,0.8,2.7,1.5,4.1,2.3l4.2,2.2L310,181.6
		l-56.2-26.2c1.4-1.8,2.5-3.7,3.5-5.7c1-2.1,1.7-4.2,2.2-6.4l56.2,26.2l34.5-74.1c1.8,1.2,3.8,2.3,5.9,3.3s4.2,1.7,6.3,2.4
		l-34.5,74.1L383.9,201.3z M340.2,38.8c9.2-19.8,32.9-28.4,52.7-19.2s28.4,32.9,19.2,52.7c-9.2,19.8-32.9,28.4-52.7,19.2
		S330.9,58.6,340.2,38.8z"/>
	<path d="M402.4,233.5c7.4,3.4,16.2,0.2,19.6-7.1c3.4-7.4,0.2-16.2-7.1-19.6s-16.2-0.2-19.6,7.1C391.8,221.3,395,230.1,402.4,233.5z
		 M411.5,213.9c3.4,1.6,4.9,5.7,3.3,9.2s-5.7,4.9-9.2,3.3c-3.4-1.6-4.9-5.7-3.3-9.2S408.1,212.3,411.5,213.9z"/>
	<path d="M235.3,123.1c-7.4-3.4-16.2-0.2-19.6,7.1c-3.4,7.4-0.2,16.2,7.1,19.6c7.4,3.4,16.2,0.2,19.6-7.1
		C245.9,135.3,242.7,126.5,235.3,123.1z M226.2,142.7c-3.4-1.6-4.9-5.7-3.3-9.2s5.7-4.9,9.2-3.3c3.4,1.6,4.9,5.7,3.3,9.2
		C233.8,142.8,229.6,144.3,226.2,142.7z"/>
	<path d="M404.3,68.7c7.2-15.5,0.5-34.1-15-41.3s-34.1-0.5-41.3,15c-7.2,15.5-0.5,34.1,15,41.3C378.5,91,397.1,84.3,404.3,68.7z
		 M355,45.7c5.4-11.6,19.3-16.7,30.9-11.3s16.7,19.3,11.3,30.9S377.9,82,366.3,76.6C354.7,71.2,349.6,57.4,355,45.7z"/>
</g>
</svg>
