<?xml version="1.0" encoding="utf-8"?>
<!-- Generator: Adobe Illustrator 21.0.0, SVG Export Plug-In . SVG Version: 6.00 Build 0)  -->
<svg version="1.1" id="Layer_1" xmlns="http://www.w3.org/2000/svg" xmlns:xlink="http://www.w3.org/1999/xlink" x="0px" y="0px"
	 viewBox="0 0 630 630" style="enable-background:new 0 0 630 630;" xml:space="preserve">
<path d="M587.4,301.1c-31.9,0-63.6,15.4-84.8,41.3c-20.9,25.5-29.3,60.4-22.6,93.3c1.6,8.2,4.2,16,7.6,23.5c2,4.4,4.3,8.4,6.7,11.9
	c0.3,0.6,0.7,1.1,1.1,1.8s0.9,1.4,1.4,2l0.3,0.5c-2.7,6.5-54.2,37.7-62.8,42c-26.3,13.1-55.5,21.8-89.1,26.6l-8.9,0.9V392.4l3.2-0.3
	c25.6-3.7,50.3-12.9,71-26.6c3.9-2.5,7.7-5.2,11.5-8.1c15.2-11.6,28.5-25.8,39.4-42c7.3-10.8,12.9-21.6,17-32.1
	c1.1-2.8,2.2-5.8,3.3-9.2c1.6-4.9,2.2-9.8,2-14.9c-0.1-4.2-2-7.9-3.7-11.6c-0.3-0.8-0.8-1.5-1.1-2.3c-3.1-6.7-6.7-13.2-10.1-19.5
	c-2.4-4.4-4.8-8.7-7-13.2l-0.6-1.1c-8.2-16.2-16-33.4-23.8-52.8c-1.4-3.3-2.6-6.5-3.9-9.9l-0.3-0.9c-0.1-2.3-1.4-4.8-2.5-7.1
	c-0.5-1-0.9-2-1.2-2.8c-1.5-3.9-2.8-7.8-4.2-11.7c-3.6-10.6-7.1-21.4-10.4-32.5l-0.1-0.5c-0.7-2.5-1.4-4.9-2.2-7.7l-1.4-5.1
	c-0.7-2.3-1.2-4.7-1.8-6.9c-0.3-1.4-0.9-3.5-2.3-5.4c-1.4-1.9-3.3-3.1-4.7-3.7l-0.5-0.3c-2.5-1.5-5-2.7-7.4-3.9l-2.3-1.1
	c-1-0.6-2.2-1-3.2-1.5c-12.5-5.8-25.6-10.2-39.3-12.9c-34-6.9-70.5-3.3-102.6,10.1c-7,3-13.4,5.7-19.6,9.4c-1.4,0.8-3.3,1.9-4.7,3.9
	c-2.4,3.2-3.4,7.8-4.2,11.9c-0.3,1.5-0.7,3-1,4.3c-1.6,5.8-3.3,11.6-5,17.3c-9.9,32.1-21.7,62.8-35,91.1
	c-6.9,14.5-13.2,27.1-19.3,38.4l-0.5,0.8c-1.5,2.8-3.1,5.6-4.7,8.4l-0.6,1c-2.2,3.9-4.4,7.9-5.7,12.5c-1.7,5.9-1.2,12.5,1.1,20.1
	c0.9,3,1.9,5.8,3.1,8.5c4.2,10.8,10,21.8,17.4,32.8c17.5,26.2,42.4,47.6,72.2,62c14.6,7,31.3,11.8,52.8,15.1l0.1,152.5l-1.4-0.1
	l-2.3-0.2l0,0c-32.1-3.2-63.9-12.6-94.5-27.8c-20-9.9-38.2-21.8-54.5-35.5c-0.6-0.6-1.2-1.1-2-1.8l-5.3-4.8c0.2-0.3,0.5-0.7,0.7-1
	l0.3-0.6c14.3-22.1,20.3-48.9,16.7-75.4c-0.2-2-0.6-4.1-1-6c-2-10.8-5.7-21.1-10.7-30.8c-0.8-1.6-1.7-3.2-2.5-4.5
	c-5-8.4-11-16.1-17.9-22.9c-1.2-1.1-2.4-2.3-3.6-3.4c-2.6-2.4-5.3-4.5-8.2-6.7c-5-3.7-10.3-7-15.7-9.8c-1.6-0.8-3.2-1.6-4.7-2.3
	c-14-6.4-28.9-9.8-44.6-10H34v6.6c0,66.4,26.2,135.8,70,185.7l1.6,1.8c52.4,59.7,130.9,93.4,210.6,93.4c20.3,0,40.7-2.2,60.8-6.7
	c87.8-19.6,166-86.4,199.2-169.9C589.2,379.6,596,343.6,596,308v-6.6h-8.6V301.1z"/>
</svg>
