<?xml version="1.0" encoding="utf-8"?>
<!-- Generator: Adobe Illustrator 21.0.0, SVG Export Plug-In . SVG Version: 6.00 Build 0)  -->
<svg version="1.1" id="Layer_1" xmlns="http://www.w3.org/2000/svg" xmlns:xlink="http://www.w3.org/1999/xlink" x="0px" y="0px"
	 viewBox="0 0 500 500" style="enable-background:new 0 0 500 500;" xml:space="preserve">
<g>
	<path d="M249.9,25C374.3,25,475.1,125.9,475,250.1c-0.1,124.3-100.8,225-225,224.9C125.7,474.9,25,374.3,25,250
		C25,125.8,125.7,25,249.9,25z M249.6,385.2c0,0.1,0,0.3,0,0.4c13.2,0,26.5,0.1,39.7,0c12.1-0.2,24.3-0.2,36.2-2.9
		c30.6-6.8,49.8-25.4,57-56c3-12.6,3.1-25.4,3.2-38.2c0.2-25.9,0.2-51.8,0-77.7c-0.1-12.3-0.2-24.7-2.9-36.8
		c-6.4-29-23.6-48-52.4-56.1c-11.6-3.3-23.5-3.9-35.4-3.9c-30.2-0.2-60.4-0.2-90.6,0c-10.3,0.1-20.6,0.5-30.8,2.8
		c-28.3,6.4-47,23.1-55.4,51.1c-3.4,11.5-4,23.4-4.3,35.3c-0.6,34.2-0.9,68.4,0.4,102.6c0.3,8.5,1.4,17,3.7,25.2
		c6.1,21.6,19.2,37.4,39.9,46.6c12.5,5.6,25.8,7.4,39.3,7.5C214.7,385.4,232.1,385.2,249.6,385.2z"/>
	<path d="M249.8,137.6c19,0.4,37.9,0.7,56.9,1.3c10.2,0.3,20.1,2.2,29.2,7.2c12.5,7,19.7,17.9,22.8,31.7c1.8,8,2.4,16.2,2.4,24.3
		c0.1,31.8,0.1,63.6,0,95.3c0,8.9-0.6,17.9-2.9,26.5c-5.4,19.8-18.5,31.3-38.4,35c-7,1.3-14.2,1.9-21.2,2c-32.5,0.2-64.9,0.2-97.4,0
		c-8.6,0-17.2-0.6-25.5-2.9c-19.6-5.4-31-18.4-35-38.1c-2.3-11.3-2.3-22.9-2.4-34.3c-0.1-28,0.1-55.9,0.3-83.9
		c0.1-8.9,0.6-17.9,3-26.5c5.4-19.5,18.4-30.8,38-34.7c12.4-2.5,24.9-2.2,37.5-2.4c10.9-0.2,21.9,0,32.8,0
		C249.8,137.9,249.8,137.8,249.8,137.6z M179.9,249.6c0,38.6,31.1,69.9,69.5,70c38.8,0.1,70.1-31,70.2-69.7
		c0.1-38.7-31-69.9-69.9-70C211.3,179.8,180,211.1,179.9,249.6z M322,193.5c9,0.2,16.4-7,16.6-16.1c0.2-8.7-7.1-16.2-15.9-16.5
		c-9.1-0.2-16.5,6.9-16.8,15.9C305.7,185.8,312.9,193.3,322,193.5z"/>
	<path d="M204.2,249.7c0.1-25.2,20.6-45.6,45.7-45.5c25.1,0.1,45.4,20.5,45.3,45.6c-0.1,25.3-20.4,45.5-45.6,45.4
		C224.5,295.1,204.2,274.7,204.2,249.7z"/>
</g>
</svg>
