<?xml version="1.0" encoding="utf-8"?>
<!-- Generator: Adobe Illustrator 21.0.0, SVG Export Plug-In . SVG Version: 6.00 Build 0)  -->
<svg version="1.1" id="Layer_1" xmlns="http://www.w3.org/2000/svg" xmlns:xlink="http://www.w3.org/1999/xlink" x="0px" y="0px"
	 viewBox="0 0 500 500" style="enable-background:new 0 0 500 500;" xml:space="preserve">
<g>
	<path d="M25.1,250C25.1,125.7,126,24.8,250.2,25c124.1,0.2,224.6,100.8,224.6,225c0,124.3-101,225.3-225.1,225
		C125.6,474.7,25.2,374.1,25.1,250z M226,238c2.7-1.1,4.2-1.8,5.7-2.4c7.3-3,12.8-8,16.2-15.1c10.5-21.8,0.3-51.4-21.3-62.1
		c-9.3-4.6-19.1-6.1-29.4-6c-30.3,0.1-60.7,0-91,0c-1.6,0-3.3,0.2-5,0.2c0,62.5,0,124.6,0,187.1c1.6,0.1,2.9,0.2,4.2,0.2
		c31.3,0,62.7,0.1,94-0.1c4.5,0,9.1-0.4,13.5-1.3c22-4.5,38.2-15.8,43.5-38.9c2.9-12.7,2.5-25.5-1.6-37.9
		C250.5,248.4,241.9,239.8,226,238z M401.9,294.2c-11.2,0-21.8,0-32.7,0c-1.4,10.8-8.2,16.4-18.1,18.5c-5.2,1.1-10.7,1.7-16,1.3
		c-18.6-1.3-30.9-15.2-28.6-32.5c1.9,0,3.9,0,5.8,0c28.7,0,57.3-0.1,86,0.1c4,0,5.6-1.2,5.3-5.1c-0.6-8.4-0.4-16.9-2-25.1
		c-4.7-24.6-17.6-42.6-43-48.8c-8.6-2.1-17.7-2.7-26.5-2.3c-23.9,1-43.4,10.7-55.4,32.3c-11.6,21-14.3,43.3-7.2,66.4
		c6.1,19.8,18.8,33.6,38.6,40.4c14.3,4.9,29.1,5.4,44,3.8c10.3-1.1,20.2-3.9,29.1-9.4C395.4,324.7,401.8,311.4,401.9,294.2z
		 M374.5,163.8c-25.5,0-51.1,0-76.6,0c0,7.6,0,14.9,0,22.3c25.7,0,51,0,76.6,0C374.5,178.6,374.5,171.4,374.5,163.8z"/>
	<path d="M144.2,256.6c19,0,37.7-0.4,56.3,0.2c7.9,0.2,13.2,5.6,15.8,13c2.6,7.3,2.8,14.8,0.7,22.3c-2.2,7.9-7.7,13.5-15.7,13.7
		c-18.9,0.7-37.9,0.2-57.2,0.2C144.2,289.7,144.2,273.5,144.2,256.6z"/>
	<path d="M144.1,227.2c0-14.1,0-27.5,0-41.5c4.6,0,8.9,0,13.2,0c12.8,0,25.6,0,38.4,0c8.8,0,14.3,4,15.3,12.7
		c0.8,6.2,0.2,12.8-0.9,19c-0.9,5.6-5,9.6-10.8,9.7C181.1,227.4,162.8,227.2,144.1,227.2z"/>
	<path d="M366.9,256.2c-20.4,0-40.6,0-60.7,0c0.2-15.3,15-28.6,31.9-28.8C355.2,227.2,366.2,237.9,366.9,256.2z"/>
</g>
<g>
	<path d="M1417.3-178c299.2,0,541.9,242.7,541.7,541.7c-0.3,299.1-242.7,541.4-541.6,541.3c-299-0.1-541.4-242.5-541.4-541.5
		C876,64.6,1118.4-178,1417.3-178z M1416.5,689c0,0.3,0,0.6,0,1c31.8,0,63.7,0.3,95.5-0.1c29.1-0.4,58.4-0.6,87-6.9
		c73.7-16.4,119.8-61.1,137.2-134.7c7.2-30.2,7.4-61.1,7.6-91.9c0.4-62.3,0.4-124.6,0-187c-0.2-29.6-0.5-59.4-6.9-88.5
		c-15.4-69.8-56.8-115.5-126-135.1c-27.9-7.9-56.5-9.3-85.2-9.5c-72.6-0.5-145.3-0.4-217.9,0c-24.8,0.1-49.7,1.3-74,6.8
		c-68,15.4-113.2,55.6-133.3,123c-8.3,27.7-9.7,56.4-10.2,85.1c-1.5,82.3-2.2,164.6,0.9,246.9c0.8,20.5,3.3,40.8,8.9,60.6
		c14.8,52.1,46.2,90.1,95.9,112.2c30,13.4,62,17.7,94.5,18.1C1332.5,689.4,1374.5,689,1416.5,689z"/>
	<path d="M1417,93.1c45.6,1,91.3,1.6,136.9,3c24.5,0.7,48.5,5.2,70.2,17.3c30.1,16.8,47.3,43,54.9,76.2c4.4,19.3,5.7,38.9,5.7,58.6
		c0.3,76.5,0.3,152.9,0,229.4c-0.1,21.5-1.4,43-7.1,63.9c-13,47.6-44.6,75.4-92.5,84.3c-16.8,3.1-34.1,4.7-51.1,4.8
		c-78.1,0.5-156.3,0.4-234.4,0.1c-20.6-0.1-41.3-1.5-61.4-7c-47.1-13-74.5-44.2-84.2-91.6c-5.5-27.3-5.6-55-5.7-82.6
		c-0.3-67.3,0.2-134.6,0.8-201.9c0.2-21.5,1.4-43,7.2-63.9c13.1-46.9,44.3-74.2,91.5-83.6c29.8-5.9,60-5.3,90.1-5.8
		c26.3-0.5,52.7-0.1,79-0.1C1417,93.7,1417,93.4,1417,93.1z M1248.8,362.5c-0.1,92.9,74.7,168.2,167.2,168.5
		c93.3,0.2,168.8-74.7,169-167.8c0.2-93.1-74.7-168.1-168.3-168.4C1324.4,194.5,1248.9,269.9,1248.8,362.5z M1590.9,227.5
		c21.6,0.5,39.5-16.9,39.9-38.8c0.4-21-17-39.1-38.2-39.6c-21.8-0.5-39.7,16.5-40.4,38.3C1551.6,208.9,1569,226.9,1590.9,227.5z"/>
	<path d="M1307.3,362.8c0.1-60.5,49.6-109.8,109.9-109.5c60.5,0.4,109.3,49.4,109.1,109.7c-0.2,60.8-49.1,109.6-109.8,109.3
		C1356.1,472.1,1307.2,423.1,1307.3,362.8z"/>
</g>
</svg>
